<svg xmlns="http://www.w3.org/2000/svg" width="90" height="90" fill="none" viewBox="0 0 90 90">
    <path fill="#1B3F70" d="M9.262 63.769c-.003-.154.054-.304.16-.417.056-.057.124-.102.2-.131.075-.03.155-.042.236-.038.08-.005.159.007.233.035.074.028.142.072.199.127.057.056.1.123.13.197.03.074.043.153.04.233.002.076-.012.151-.04.222-.028.07-.07.135-.124.188-.058.056-.127.1-.202.129-.075.028-.156.04-.236.037-.08.005-.16-.008-.236-.037-.075-.028-.143-.072-.2-.129-.054-.055-.096-.12-.123-.191-.028-.072-.04-.148-.037-.225zm1.024 10.122h-.872v-7.852h.872v7.852zM15.825 73.891v-10.57h3.123c1.133 0 1.993.234 2.58.703.586.468.88 1.157.878 2.066.012.513-.145 1.015-.446 1.43-.307.41-.735.714-1.224.868.584.12 1.108.439 1.482.903.374.463.576 1.043.569 1.64 0 .935-.302 1.665-.904 2.188-.603.524-1.442.787-2.517.79l-3.541-.018zm.894-5.833h2.44c.746-.014 1.322-.197 1.733-.527.41-.33.614-.829.614-1.472 0-.681-.213-1.185-.636-1.504-.422-.32-1.064-.484-1.922-.484h-2.229v3.987zm0 .756v4.323h2.679c.766 0 1.372-.197 1.82-.592.225-.202.402-.452.519-.731.116-.28.169-.581.154-.884.013-.29-.038-.579-.15-.846-.11-.268-.28-.508-.494-.703-.429-.38-1.02-.569-1.776-.569l-2.752.002zM42.346 73.891h-.9v-5.063h-6.044v5.063h-.894v-10.57h.894v4.751h6.044v-4.751h.9v10.57zM55.295 63.32v7.215c.01.651-.154 1.293-.474 1.86-.307.526-.763.95-1.31 1.218-.606.291-1.271.437-1.943.424-1.113 0-2.005-.304-2.676-.912-.672-.608-1.017-1.447-1.037-2.519v-7.285h.887v7.155c0 .89.254 1.581.761 2.075.508.493 1.199.739 2.071.736.871 0 1.56-.247 2.067-.74.506-.494.759-1.181.758-2.063v-7.163h.896zM60.76 73.891v-10.57h3.123c1.136 0 1.996.234 2.58.703.585.468.877 1.157.879 2.066.011.513-.145 1.015-.447 1.43-.306.41-.734.714-1.223.868.583.12 1.106.44 1.48.904.373.463.573 1.043.567 1.638 0 .936-.302 1.665-.904 2.19-.603.523-1.442.786-2.517.789l-3.537-.018zm.895-5.833h2.44c.746-.014 1.322-.197 1.733-.527.41-.33.614-.829.614-1.472 0-.681-.214-1.185-.636-1.504-.422-.32-1.064-.484-1.923-.484h-2.228v3.987zm0 .756v4.323h2.68c.765 0 1.37-.197 1.818-.592.226-.203.404-.454.52-.734.117-.28.17-.584.153-.887.014-.29-.037-.578-.148-.846-.112-.268-.28-.508-.495-.703-.428-.38-1.02-.569-1.777-.569l-2.751.008zM78.845 71.297c.012-.264-.038-.527-.145-.768-.107-.242-.269-.455-.472-.623-.411-.342-1.164-.667-2.259-.973-1.094-.307-1.894-.643-2.398-1.007-.324-.22-.591-.513-.778-.857-.187-.344-.289-.728-.296-1.12-.007-.39.08-.778.254-1.129.173-.35.43-.654.745-.885.666-.506 1.517-.758 2.552-.758.652-.011 1.297.128 1.885.406.529.248.976.641 1.29 1.133.306.485.465 1.048.457 1.621h-.9c.013-.328-.046-.654-.175-.956-.128-.302-.322-.571-.567-.789-.493-.44-1.157-.66-1.99-.66-.809 0-1.453.181-1.932.542-.227.159-.41.37-.536.618-.125.246-.188.52-.183.797-.005.255.051.507.164.736.112.23.277.428.482.58.431.34 1.122.64 2.07.899.749.183 1.473.454 2.158.807.444.237.823.58 1.103.999.257.414.386.894.372 1.381.01.39-.076.777-.25 1.126-.175.35-.432.651-.75.878-.665.503-1.543.755-2.632.756-.704.01-1.402-.125-2.051-.395-.573-.224-1.066-.613-1.418-1.117-.325-.488-.493-1.064-.483-1.65h.894c-.013.34.056.678.201.985.146.308.363.576.634.781.557.43 1.297.646 2.222.646.823 0 1.484-.182 1.984-.545.238-.16.43-.379.561-.633.13-.255.195-.54.187-.826z"/>
    <path fill="#036DB0" d="M23.057 31.87L7.367 55.164c-.218.323-.343.7-.364 1.089-.02.389.065.776.247 1.12.183.345.455.633.788.835.334.202.716.31 1.105.311h31.385c.39 0 .774-.106 1.109-.307.334-.201.608-.49.792-.834.183-.345.27-.733.25-1.123-.02-.39-.146-.767-.364-1.091L26.63 31.87c-.197-.293-.463-.533-.775-.698-.311-.166-.659-.253-1.011-.253-.353 0-.7.087-1.012.252-.312.166-.578.406-.775.699z"/>
    <path fill="#4CC7F4" d="M51.323 16.056L25.05 54.744c-.246.362-.39.785-.413 1.222-.024.437.071.872.276 1.259.205.387.511.71.886.936.375.226.805.346 1.243.346h52.55c.438 0 .868-.12 1.243-.346.375-.225.681-.55.886-.936.205-.387.3-.822.276-1.26-.024-.437-.167-.859-.413-1.22L55.31 16.054c-.221-.324-.518-.59-.865-.775-.348-.184-.735-.28-1.128-.28-.393 0-.78.096-1.128.28-.347.184-.644.45-.865.776z"/>
</svg>
